<svg width="61" height="60" xmlns="http://www.w3.org/2000/svg" xmlns:xlink="http://www.w3.org/1999/xlink" xml:space="preserve" overflow="hidden"><g transform="translate(-12 -8)"><g><g><g><g><path d="M65.125 46.4375C64.8125 44.5625 63.8125 42.875 62.3125 41.6875 60.4375 40.25 58.4375 39.0625 56.25 38.25 56.9375 36.4375 56.125 34.375 54.375 33.5 58.9375 27.25 57.5625 18.4375 51.3125 13.875 45.0625 9.3125 36.25 10.6875 31.6875 16.9375 28.0625 21.875 28.0625 28.5625 31.6875 33.5 29.9375 34.4375 29.1875 36.5 29.875 38.3125 27.75 39.25 25.6875 40.375 23.8125 41.6875 22.25 42.875 21.25 44.5625 20.9375 46.5L19.8125 60.1875 20.8125 60.5C21.125 60.5625 29.5625 63 43 63 56.4375 63 64.875 60.5625 65.25 60.4375L66.25 60.125 65.1875 46.5 65.125 46.4375ZM32.75 38.125C32.0625 37.75 31.875 36.875 32.25 36.1875 32.5 35.75 32.9375 35.5 33.4375 35.5 38.8125 40.5 47.125 40.5 52.5 35.5 52.625 35.5 52.75 35.5 52.8125 35.5625 53.5625 35.75 54 36.5 53.8125 37.25 53.75 37.625 53.5 37.9375 53.1875 38.125 50.75 39.625 47 40.5 43 40.5 39 40.5 35.3125 39.625 32.75 38.125ZM50.5 28.625C50.5 29.5 50.375 30.3125 50.0625 31.125L47.3125 31.125C47.0625 30.75 46.6875 30.5 46.25 30.5L45 30.5C44.3125 30.5 43.75 31.0625 43.75 31.75 43.75 32.4375 44.3125 33 45 33L46.25 33C46.6875 33 47.125 32.75 47.3125 32.375L49.5 32.375C47.4375 35.9375 42.875 37.1875 39.25 35.125 36.9375 33.8125 35.5 31.3125 35.5 28.625L35.5 21.5C37.8125 20.375 40.4375 19.8125 43 19.875 45.5625 19.8125 48.1875 20.375 50.5 21.5L50.5 28.625ZM43 13.625C47.5625 13.625 51.6875 16.3125 53.5625 20.4375 51.0625 18.5625 47.3125 17.375 43 17.375 38.6875 17.375 34.9375 18.5625 32.4375 20.4375 34.3125 16.3125 38.4375 13.625 43 13.625ZM56.625 59.5625 56.125 55.375C56.0625 54.6875 55.4375 54.1875 54.75 54.3125 54.0625 54.375 53.5625 55 53.6875 55.6875L54.1875 59.9375C50.4375 60.3125 46.75 60.5 43 60.5 39.25 60.5 35.5625 60.3125 31.8125 59.875L32.3125 55.625C32.375 54.9375 31.9375 54.3125 31.25 54.25 30.5625 54.1875 29.9375 54.625 29.875 55.3125L29.375 59.5625C26.0625 59.125 23.6875 58.5625 22.5 58.3125L23.4375 46.8125C23.5625 46.0625 23.8125 45.375 24.25 44.8125L27.4375 47.5625 29.875 44.6875 27.25 42.4375C28.625 41.625 30.0625 40.875 31.5625 40.3125 34.4375 42 38.625 43 43 43 47.4375 43 51.625 42 54.5625 40.25 56.0625 40.8125 57.5 41.5 58.875 42.375L56.125 44.6875 58.5625 47.5625 61.75 44.8125C62.1875 45.4375 62.4375 46.125 62.5625 46.8125L63.5 58.3125C62.3125 58.625 59.9375 59.125 56.625 59.5625Z" fill="#000000" fill-rule="nonzero" fill-opacity="1"/><path d="M48 46.125 38 46.125C36.625 46.125 35.5 47.25 35.5 48.625L35.5 53.625C35.5 55 36.625 56.125 38 56.125L48 56.125C49.375 56.125 50.5 55 50.5 53.625L50.5 48.625C50.5 47.25 49.375 46.125 48 46.125ZM38 53.625 38 48.625 48 48.625 48 53.625 38 53.625Z" fill="#000000" fill-rule="nonzero" fill-opacity="1"/><path d="M17.5 30.5C17.125 31.875 16.1875 33 14.875 33.625 16.125 34.25 17.125 35.375 17.5 36.75 17.875 35.375 18.8125 34.25 20.125 33.625 18.8125 33 17.875 31.875 17.5 30.5Z" fill="#000000" fill-rule="nonzero" fill-opacity="1"/><path d="M24.125 13.625C23.75 15 22.8125 16.125 21.5 16.75 22.75 17.375 23.75 18.5 24.125 19.875 24.5 18.5 25.4375 17.375 26.75 16.75 25.5 16.125 24.5 15 24.125 13.625Z" fill="#000000" fill-rule="nonzero" fill-opacity="1"/><path d="M65.375 27.4375C65 28.8125 64.0625 29.9375 62.75 30.5625 64 31.1875 65 32.3125 65.375 33.6875 65.75 32.3125 66.6875 31.1875 68 30.5625 66.75 29.9375 65.75 28.8125 65.375 27.4375Z" fill="#000000" fill-rule="nonzero" fill-opacity="1"/></g></g></g></g></g></svg>